<svg width="32" height="32" viewBox="0 0 32 32" fill="none" xmlns="http://www.w3.org/2000/svg">
<g clip-path="url(#clip0_50_2319)">
<path d="M26.6667 13.3333H26.5133C26.6983 12.7244 26.7402 12.0809 26.6357 11.4532C26.5312 10.8254 26.2831 10.2302 25.9108 9.71403C25.5385 9.19786 25.0521 8.77462 24.4894 8.47732C23.9266 8.18001 23.3029 8.01666 22.6667 8H4C-3.268 8.496 1.33333 19.5347 3.21467 22.5493C4.05835 23.8274 5.2087 24.8738 6.56071 25.593C7.91272 26.3122 9.42333 26.6813 10.9547 26.6667H15.7107C17.2172 26.6805 18.704 26.3227 20.0394 25.625C21.3747 24.9273 22.5175 23.9112 23.3667 22.6667H26.6667C33.0853 22.5427 34.3453 13.096 26.6667 13.3333ZM15.7107 24H10.9547C9.86691 24.0147 8.79282 23.7564 7.83061 23.2489C6.86841 22.7413 6.04878 22.0007 5.44667 21.0947C4.72133 20.4 0.658667 10.6667 4 10.6667H22.6667C22.8501 10.6661 23.0316 10.7044 23.1991 10.7791C23.3667 10.8538 23.5165 10.9632 23.6387 11.1C23.7686 11.2432 23.8668 11.4123 23.9268 11.5961C23.9868 11.7799 24.0072 11.9744 23.9867 12.1667C23.236 17.8453 21.824 23.748 15.7107 24ZM26.6667 20H24.784C25.3321 18.7094 25.758 17.3702 26.056 16C27.668 15.892 29.4507 16.288 29.3333 17.524C29.29 18.1995 28.9894 18.8328 28.4934 19.2934C27.9973 19.7539 27.3435 20.0068 26.6667 20ZM12.0333 4V1.33333C12.0333 0.979711 12.1738 0.640573 12.4239 0.390524C12.6739 0.140476 13.013 0 13.3667 0C13.7203 0 14.0594 0.140476 14.3095 0.390524C14.5595 0.640573 14.7 0.979711 14.7 1.33333V4C14.7 4.35362 14.5595 4.69276 14.3095 4.94281C14.0594 5.19286 13.7203 5.33333 13.3667 5.33333C13.013 5.33333 12.6739 5.19286 12.4239 4.94281C12.1738 4.69276 12.0333 4.35362 12.0333 4ZM17.3667 4V1.33333C17.3667 0.979711 17.5071 0.640573 17.7572 0.390524C18.0072 0.140476 18.3464 0 18.7 0C19.0536 0 19.3928 0.140476 19.6428 0.390524C19.8929 0.640573 20.0333 0.979711 20.0333 1.33333V4C20.0333 4.35362 19.8929 4.69276 19.6428 4.94281C19.3928 5.19286 19.0536 5.33333 18.7 5.33333C18.3464 5.33333 18.0072 5.19286 17.7572 4.94281C17.5071 4.69276 17.3667 4.35362 17.3667 4ZM6.7 4V1.33333C6.7 0.979711 6.84048 0.640573 7.09052 0.390524C7.34057 0.140476 7.67971 0 8.03333 0C8.38696 0 8.72609 0.140476 8.97614 0.390524C9.22619 0.640573 9.36667 0.979711 9.36667 1.33333V4C9.36667 4.35362 9.22619 4.69276 8.97614 4.94281C8.72609 5.19286 8.38696 5.33333 8.03333 5.33333C7.67971 5.33333 7.34057 5.19286 7.09052 4.94281C6.84048 4.69276 6.7 4.35362 6.7 4ZM26.6667 30.6667C26.6667 31.0203 26.5262 31.3594 26.2761 31.6095C26.0261 31.8595 25.687 32 25.3333 32H1.33333C0.979711 32 0.640573 31.8595 0.390524 31.6095C0.140476 31.3594 0 31.0203 0 30.6667C0 30.313 0.140476 29.9739 0.390524 29.7239C0.640573 29.4738 0.979711 29.3333 1.33333 29.3333H25.3333C25.687 29.3333 26.0261 29.4738 26.2761 29.7239C26.5262 29.9739 26.6667 30.313 26.6667 30.6667Z" fill="#5C5C5C"/>
</g>
<defs>
<clipPath id="clip0_50_2319">
<rect width="32" height="32" fill="white"/>
</clipPath>
</defs>
</svg>
