<svg width="32" height="32" viewBox="0 0 32 32" fill="none" xmlns="http://www.w3.org/2000/svg">
<g clip-path="url(#clip0_50_2422)">
<path d="M28 6.66667H22.588L23.176 2.66667H29.332V0H20.824L19.9493 6.66667H11.9987C9.79332 6.66667 7.99866 8.46133 7.99866 10.6667V14.6667H10.6653V10.6667C10.6653 9.932 11.264 9.33333 11.9987 9.33333H22.9107C22.7613 9.752 22.6653 10.1973 22.6653 10.6667V29.3333H18.0053C17.5933 30.332 17 31.232 16.2707 32H31.9973V10.6667C31.9973 8.46133 30.2027 6.66667 27.9973 6.66667H28ZM29.3333 29.3333H25.3333V10.6667C25.3333 9.932 25.932 9.33333 26.6667 9.33333H28C28.7347 9.33333 29.3333 9.932 29.3333 10.6667V29.3333ZM12.5667 20.5613C13.464 19.1467 13.3333 17.3333 13.3333 17.3333C13.3333 17.3333 10.9213 17.1547 9.48932 18.5853C9.22266 18.852 9.02132 19.164 8.84666 19.4867C8.40399 18.208 7.81199 17.316 7.77199 17.256L5.55732 18.7413C5.56399 18.7507 5.89199 19.2627 6.19066 20H5.87732C2.63599 20 -0.00134277 22.692 -0.00134277 26C-0.00134277 29.308 2.63599 32 5.87732 32C6.60132 32 7.32399 31.8613 7.99866 31.5947C8.67332 31.8613 9.39466 32 10.12 32C13.3613 32 15.9987 29.308 15.9987 26C15.9987 23.5853 14.5853 21.512 12.5653 20.5613H12.5667ZM10.12 29.3333C9.36532 29.3653 8.63732 28.9773 7.99866 28.608C7.35999 28.9773 6.63332 29.3653 5.87732 29.3333C4.10532 29.3333 2.66532 27.8373 2.66532 26C2.66532 24.1627 4.10666 22.6667 5.87732 22.6667H10.12C11.892 22.6667 13.332 24.1627 13.332 26C13.332 27.8373 11.8907 29.3333 10.12 29.3333Z" fill="#5C5C5C"/>
</g>
<defs>
<clipPath id="clip0_50_2422">
<rect width="32" height="32" fill="white"/>
</clipPath>
</defs>
</svg>
