<svg width="32" height="32" viewBox="0 0 32 32" fill="none" xmlns="http://www.w3.org/2000/svg">
<g clip-path="url(#clip0_50_2416)">
<path d="M25.3333 16.0002H21.8479L22.5679 10.2255C22.6937 9.64137 22.6878 9.03656 22.5506 8.45501C22.4134 7.87346 22.1483 7.32978 21.7747 6.86347C21.4011 6.39716 20.9283 6.01994 20.3907 5.75921C19.8531 5.49849 19.2641 5.3608 18.6666 5.35617H15.5079C15.6533 4.32817 15.5653 2.68017 17.0199 2.6735H21.3333C21.6869 2.6735 22.026 2.53303 22.2761 2.28298C22.5261 2.03293 22.6666 1.69379 22.6666 1.34017C22.6666 0.986547 22.5261 0.647409 22.2761 0.39736C22.026 0.147312 21.6869 0.00683594 21.3333 0.00683594H17.0199C16.0454 0.00743584 15.1046 0.363792 14.3742 1.00898C13.6438 1.65418 13.1741 2.54382 13.0533 3.51084L12.8226 5.35617H3.99994C3.41434 5.36245 2.83715 5.49635 2.30859 5.74854C1.78004 6.00072 1.31283 6.36513 0.93953 6.81637C0.566229 7.26761 0.295812 7.79482 0.147124 8.36126C-0.00156414 8.92771 -0.0249468 9.51976 0.0786053 10.0962L2.09594 26.1735C2.29993 27.7838 3.08384 29.2646 4.30091 30.3386C5.51798 31.4125 7.08476 32.0061 8.70794 32.0082L25.3333 31.9922C26.2088 31.9922 27.0757 31.8197 27.8845 31.4847C28.6933 31.1497 29.4283 30.6586 30.0473 30.0395C30.6664 29.4205 31.1574 28.6856 31.4925 27.8767C31.8275 27.0679 31.9999 26.201 31.9999 25.3255V22.6668C31.9999 21.7914 31.8275 20.9245 31.4925 20.1156C31.1574 19.3068 30.6664 18.5718 30.0473 17.9528C29.4283 17.3337 28.6933 16.8427 27.8845 16.5076C27.0757 16.1726 26.2088 16.0002 25.3333 16.0002ZM29.3333 22.6668H13.3333C13.3333 21.606 13.7547 20.5886 14.5048 19.8384C15.255 19.0883 16.2724 18.6668 17.3333 18.6668H25.3333C26.3941 18.6668 27.4116 19.0883 28.1617 19.8384C28.9118 20.5886 29.3333 21.606 29.3333 22.6668ZM18.6666 8.0215C18.8773 8.02264 19.0847 8.07313 19.2723 8.16892C19.4599 8.2647 19.6225 8.40313 19.7469 8.57308C19.8714 8.74303 19.9543 8.93979 19.9889 9.14756C20.0236 9.35534 20.0091 9.56834 19.9466 9.7695L19.8306 10.6668H14.8439L15.1746 8.01884L18.6666 8.0215ZM2.96527 8.52017C3.08967 8.3652 3.24714 8.23999 3.42616 8.15372C3.60518 8.06744 3.80122 8.02226 3.99994 8.0215H12.4893L12.1573 10.6668H2.83194L2.69861 9.64017C2.65587 9.44545 2.65765 9.2436 2.70383 9.04967C2.75 8.85574 2.83937 8.67474 2.96527 8.52017ZM4.74127 25.8428L3.16794 13.3335H19.4973L19.1626 16.0002H17.3333C15.5652 16.0002 13.8695 16.7025 12.6192 17.9528C11.369 19.203 10.6666 20.8987 10.6666 22.6668C10.6106 24.8455 10.5333 27.6535 12.0479 29.3468H8.70794C7.7334 29.3462 6.7926 28.9899 6.06221 28.3447C5.33183 27.6995 4.86211 26.8099 4.74127 25.8428ZM25.3333 29.3335H17.3333C16.2724 29.3335 15.255 28.9121 14.5048 28.1619C13.7547 27.4118 13.3333 26.3944 13.3333 25.3335H18.2666C18.7826 25.5815 22.0999 28.1482 22.6666 28.0002C23.2213 28.1575 26.5733 25.5695 27.0666 25.3335H29.3333C29.3333 26.3944 28.9118 27.4118 28.1617 28.1619C27.4116 28.9121 26.3941 29.3335 25.3333 29.3335Z" fill="#5C5C5C"/>
</g>
<defs>
<clipPath id="clip0_50_2416">
<rect width="32" height="32" fill="white"/>
</clipPath>
</defs>
</svg>
