<svg width="32" height="32" viewBox="0 0 32 32" fill="none" xmlns="http://www.w3.org/2000/svg">
<g clip-path="url(#clip0_50_2418)">
<path d="M29.8333 5.04689C27.8388 3.91157 25.6448 3.1697 23.3706 2.86155C23.0263 2.19899 22.5472 1.61582 21.964 1.14955C21.3359 0.650125 20.6024 0.300181 19.8191 0.126232C19.0357 -0.0477172 18.223 -0.0411099 17.4426 0.145554C15.7746 0.566451 14.1568 1.16591 12.6173 1.93355C11.5244 1.41393 10.3037 1.22433 9.10462 1.38797C7.90559 1.55162 6.78032 2.0614 5.86662 2.85489C5.37729 3.27489 4.88529 3.71355 4.39996 4.16555C3.89062 4.64422 3.37196 5.18822 2.85462 5.77889C2.20641 6.51997 1.7438 7.40464 1.50501 8.35982C1.26621 9.31499 1.25808 10.3133 1.48129 11.2722C1.58433 11.7249 1.7368 12.1649 1.93596 12.5842C1.16311 14.1347 0.558762 15.7635 0.133289 17.4429C-0.0541749 18.2233 -0.061184 19.0361 0.112795 19.8196C0.286774 20.6031 0.637157 21.3365 1.13729 21.9642C1.60841 22.5535 2.19919 23.0361 2.87062 23.3802C3.17958 25.6511 3.92095 27.8418 5.05462 29.8336C5.49447 30.6237 6.17629 31.2518 6.99979 31.6255C7.82329 31.9993 8.74499 32.0988 9.62929 31.9096C10.544 31.7284 11.3762 31.2578 12.0029 30.5672C12.6296 29.8767 13.0175 29.0029 13.1093 28.0749C13.3582 26.3584 13.8093 24.6774 14.4533 23.0669C14.4533 23.0669 15.18 22.6189 15.512 22.3482C16.3113 21.6777 16.8787 20.772 17.1333 19.7602C17.7497 19.5561 18.3103 19.2115 18.7706 18.7536C19.219 18.2972 19.5582 17.7451 19.7626 17.1389C20.771 16.8831 21.6732 16.3163 22.3413 15.5189C22.608 15.1869 23.0613 14.4589 23.0613 14.4589C24.6683 13.7976 26.3529 13.3437 28.0746 13.1082C29.0026 13.0164 29.8764 12.6285 30.567 12.0018C31.2575 11.3751 31.7281 10.543 31.9093 9.62822C32.1016 8.74289 32.0035 7.81914 31.6296 6.99393C31.2557 6.16872 30.6258 5.48597 29.8333 5.04689ZM10.452 27.7776C10.4199 28.1453 10.2689 28.4926 10.0218 28.7668C9.77471 29.0411 9.44503 29.2274 9.08262 29.2976C8.74914 29.3734 8.39996 29.3375 8.08889 29.1954C7.77783 29.0532 7.52216 28.8127 7.36129 28.5109C6.55942 27.1065 5.98476 25.5842 5.65862 24.0002H10.8586C11.004 24.0002 11.1453 23.9709 11.2893 23.9629C10.908 25.1402 10.452 27.7722 10.452 27.7776ZM13.8253 20.2762C12.9881 20.9588 11.9414 21.3322 10.8613 21.3336H5.33329C4.9277 21.3344 4.52725 21.2428 4.16243 21.0655C3.7976 20.8883 3.478 20.6302 3.22796 20.3109C2.97854 19.9984 2.80364 19.6332 2.71654 19.2429C2.62944 18.8527 2.63243 18.4478 2.72529 18.0589C2.99222 16.9824 3.34903 15.9303 3.79196 14.9136C4.20358 15.2357 4.65426 15.5045 5.13329 15.7136L14.036 19.6122C14.1186 19.6509 14.2066 19.6656 14.2906 19.6976C14.1713 19.9167 14.0137 20.1127 13.8253 20.2762ZM16.872 16.8736C16.6492 17.0995 16.3618 17.2508 16.0495 17.3066C15.7372 17.3625 15.4152 17.3202 15.128 17.1856L6.20396 13.2776C5.67187 13.0444 5.2028 12.6882 4.83537 12.2383C4.46795 11.7883 4.21269 11.2575 4.09062 10.6896C3.96122 10.139 3.96458 9.56561 4.10043 9.01664C4.23628 8.46766 4.50073 7.95886 4.87196 7.53222C5.33329 7.00689 5.78929 6.52689 6.23596 6.10689C6.68262 5.68689 7.14529 5.27355 7.60529 4.88022C8.02981 4.51076 8.53545 4.24658 9.08118 4.10913C9.62692 3.97167 10.1974 3.96482 10.7463 4.08911C11.2951 4.21341 11.807 4.46536 12.2403 4.82451C12.6735 5.18367 13.016 5.63991 13.24 6.15622L17.192 15.0762C17.3242 15.3735 17.3644 15.7036 17.3073 16.0239C17.2503 16.3442 17.0987 16.6402 16.872 16.8736ZM21.3333 10.8616C21.3324 11.9416 20.9595 12.9883 20.2773 13.8256C20.1214 14.0061 19.9362 14.1589 19.7293 14.2776C19.6946 14.1842 19.6693 14.0882 19.6293 13.9962L15.6786 5.07755C15.4789 4.62474 15.2275 4.19656 14.9293 3.80155C15.941 3.35975 16.9877 3.00296 18.0586 2.73489C18.4475 2.64183 18.8525 2.63874 19.2427 2.72584C19.633 2.81295 19.9982 2.98796 20.3106 3.23755C20.6307 3.48815 20.8892 3.80861 21.0665 4.17442C21.2437 4.54024 21.335 4.94173 21.3333 5.34822V10.8616ZM29.2973 9.08289C29.2271 9.44529 29.0408 9.77497 28.7666 10.022C28.4923 10.2691 28.145 10.4201 27.7773 10.4522C27.7773 10.4522 25.14 10.9082 23.9626 11.2922C23.972 11.1482 24 11.0069 24 10.8616V5.66155C25.5839 5.98769 27.1063 6.56235 28.5106 7.36422C28.8115 7.52547 29.0512 7.78078 29.1933 8.09113C29.3353 8.40148 29.3719 8.74981 29.2973 9.08289Z" fill="#5C5C5C"/>
</g>
<defs>
<clipPath id="clip0_50_2418">
<rect width="32" height="32" fill="white"/>
</clipPath>
</defs>
</svg>
