<svg width="24" height="24" viewBox="0 0 24 24" fill="none" xmlns="http://www.w3.org/2000/svg">
<path fill-rule="evenodd" clip-rule="evenodd" d="M16.2929 9.70701C16.6834 10.0975 17.3166 10.0975 17.7071 9.70701C18.0976 9.31649 18.0976 8.68332 17.7071 8.2928L12.7071 3.2928L12 2.58569L11.2929 3.2928L6.29289 8.2928C5.90237 8.68332 5.90237 9.31649 6.29289 9.70701C6.68342 10.0975 7.31658 10.0975 7.70711 9.70701L11 6.41412L11 15.9999C11 16.5522 11.4477 16.9999 12 16.9999C12.5523 16.9999 13 16.5522 13 15.9999L13 6.41412L16.2929 9.70701ZM5 13.9999C5 13.4476 4.55228 12.9999 4 12.9999C3.44772 12.9999 3 13.4476 3 13.9999V17.9999C3 19.6568 4.34315 20.9999 6 20.9999H18C19.6569 20.9999 21 19.6568 21 17.9999V13.9999C21 13.4476 20.5523 12.9999 20 12.9999C19.4477 12.9999 19 13.4476 19 13.9999V17.9999C19 18.5522 18.5523 18.9999 18 18.9999H6C5.44772 18.9999 5 18.5522 5 17.9999V13.9999Z" fill="black"/>
</svg>
