<svg width="24" height="24" viewBox="0 0 24 24" fill="none" xmlns="http://www.w3.org/2000/svg">
<path fill-rule="evenodd" clip-rule="evenodd" d="M7.23607 5C6.8573 5 6.51103 5.214 6.34164 5.55279L5.61803 7H18.382L17.6584 5.55279C17.489 5.214 17.1427 5 16.7639 5H7.23607ZM5 18V9H19V18C19 18.5523 18.5523 19 18 19H6C5.44772 19 5 18.5523 5 18ZM4.55279 4.65836C5.06096 3.64201 6.09975 3 7.23607 3H16.7639C17.9002 3 18.939 3.64201 19.4472 4.65836L20.6833 7.1305C20.8916 7.54706 21 8.0064 21 8.47214V18C21 19.6569 19.6569 21 18 21H6C4.34315 21 3 19.6569 3 18V8.47214C3 8.0064 3.10844 7.54706 3.31672 7.1305L4.55279 4.65836ZM10 12C10 11.4477 9.55228 11 9 11C8.44772 11 8 11.4477 8 12C8 14.2091 9.79086 16 12 16C14.2091 16 16 14.2091 16 12C16 11.4477 15.5523 11 15 11C14.4477 11 14 11.4477 14 12C14 13.1046 13.1046 14 12 14C10.8954 14 10 13.1046 10 12Z" fill="black"/>
</svg>
