<svg width="32" height="32" viewBox="0 0 32 32" fill="none" xmlns="http://www.w3.org/2000/svg">
<path d="M29.3334 6.66667H19.3414L19.696 3.83467C19.7787 3.168 20.348 2.66667 21.02 2.66667H25.3334C26.0694 2.66667 26.6667 2.06933 26.6667 1.33333C26.6667 0.597333 26.0694 0 25.3334 0H21.02C19.008 0 17.3 1.50533 17.0507 3.50267L16.6547 6.66667H2.66671C1.93071 6.66667 1.33337 7.264 1.33337 8C1.33337 8.736 1.93071 9.33333 2.66671 9.33333H3.48137L5.46271 26.1147C5.85871 29.4707 8.70537 32 12.084 32H19.9174C23.296 32 26.1427 29.4693 26.5374 26.1147L28.5187 9.33333H29.3334C30.0694 9.33333 30.6667 8.736 30.6667 8C30.6667 7.264 30.0694 6.66667 29.3334 6.66667ZM19.9174 29.3333H12.084C10.056 29.3333 8.34937 27.8147 8.11204 25.8027L7.49337 20.56C8.61071 19.7947 10.564 18.668 12.0014 18.668C13.02 18.668 14.1787 19.248 15.4054 19.8613C16.8547 20.5853 18.3534 21.3347 20.0014 21.3347C21.5934 21.3347 23.284 20.6093 24.5907 19.8733L23.8907 25.804C23.6534 27.8173 21.9467 29.3347 19.9187 29.3347L19.9174 29.3333ZM24.996 16.4253C24.064 17.128 21.6787 18.6667 20 18.6667C18.9814 18.6667 17.8227 18.0867 16.596 17.4733C15.1467 16.7493 13.648 16 12 16C10.2974 16 8.48137 16.8307 7.14404 17.6147L6.16671 9.33333H25.8334L24.996 16.4253Z" fill="#5C5C5C"/>
</svg>
