<svg width="32" height="32" viewBox="0 0 32 32" fill="none" xmlns="http://www.w3.org/2000/svg">
<g clip-path="url(#clip0_50_2438)">
<path d="M14.7107 5.33333H12.044V0H14.7107V5.33333ZM20.044 5.33333H17.3774V0H20.044V5.33333ZM9.37737 5.33333H6.7107V0H9.37737V5.33333ZM0.0106991 29.3333H26.6774V32H0.0106991V29.3333ZM3.23988e-05 18.6667C4.7507 18.7427 6.60403 21.9547 7.3267 24.284C8.01337 22.3947 9.60003 20.0587 13.296 20C13.6014 25.452 9.66937 26.4587 7.78537 26.6307C7.85203 26.6627 6.77737 26.6733 6.80803 26.6387C4.64003 26.484 -0.378634 25.408 3.23988e-05 18.6667ZM26.6774 12H24V8H2.6667V16.3467C3.62803 16.5867 4.52137 16.948 5.33337 17.4333V10.6667H21.3334V21.3333C21.3334 22.804 20.1374 24 18.6667 24H15.396C15.012 25.06 14.46 25.9467 13.7747 26.6667H18.6667C21.608 26.6667 24 24.2747 24 21.3333H26.6774C29.568 21.3333 32.0107 18.9773 32.0107 16.1907C32.0107 13.6067 29.9667 12 26.6774 12ZM26.6774 18.6667H24V14.6667H26.6774C28.4467 14.6667 29.344 15.18 29.344 16.1907C29.344 17.5093 28.0974 18.6667 26.6774 18.6667Z" fill="#5C5C5C"/>
</g>
<defs>
<clipPath id="clip0_50_2438">
<rect width="32" height="32" fill="white"/>
</clipPath>
</defs>
</svg>
