<svg width="32" height="32" viewBox="0 0 32 32" fill="none" xmlns="http://www.w3.org/2000/svg">
<g clip-path="url(#clip0_50_2440)">
<path d="M26.6666 10.652C26.6633 9.59088 26.3421 8.55509 25.7444 7.67833C25.1466 6.80157 24.2998 6.12409 23.3133 5.73333L19.9999 4.40933V2.66667C20.3536 2.66667 20.6927 2.52619 20.9428 2.27614C21.1928 2.02609 21.3333 1.68696 21.3333 1.33333C21.3333 0.979711 21.1928 0.640573 20.9428 0.390524C20.6927 0.140476 20.3536 0 19.9999 0L11.9999 0C11.6463 0 11.3072 0.140476 11.0571 0.390524C10.8071 0.640573 10.6666 0.979711 10.6666 1.33333C10.6666 1.68696 10.8071 2.02609 11.0571 2.27614C11.3072 2.52619 11.6463 2.66667 11.9999 2.66667V4.40933L8.68528 5.73333C7.8461 6.07712 7.10844 6.62922 6.54202 7.33744C5.9756 8.04566 5.59913 8.88662 5.44818 9.78084C5.29723 10.6751 5.37679 11.593 5.67935 12.4479C5.9819 13.3028 6.49745 14.0665 7.17728 14.6667C6.60844 15.1663 6.15271 15.7816 5.84051 16.4713C5.52831 17.1611 5.36682 17.9095 5.36682 18.6667C5.36682 19.4238 5.52831 20.1722 5.84051 20.862C6.15271 21.5518 6.60844 22.167 7.17728 22.6667C6.37143 23.3829 5.8012 24.3263 5.54155 25.3727C5.28191 26.4191 5.34501 27.5196 5.72256 28.5294C6.10011 29.5393 6.77443 30.4113 7.65687 31.0307C8.5393 31.6502 9.58853 31.9881 10.6666 32H21.3333C22.4115 31.9883 23.4609 31.6506 24.3435 31.0313C25.2262 30.412 25.9007 29.54 26.2784 28.5301C26.6561 27.5201 26.7193 26.4195 26.4597 25.373C26.2001 24.3265 25.6299 23.383 24.8239 22.6667C25.3928 22.167 25.8485 21.5518 26.1607 20.862C26.4729 20.1722 26.6344 19.4238 26.6344 18.6667C26.6344 17.9095 26.4729 17.1611 26.1607 16.4713C25.8485 15.7816 25.3928 15.1663 24.8239 14.6667C25.4005 14.1684 25.8634 13.5521 26.1813 12.8595C26.4992 12.1669 26.6647 11.4141 26.6666 10.652ZM23.9999 26.6667C23.9999 27.3739 23.719 28.0522 23.2189 28.5523C22.7188 29.0524 22.0405 29.3333 21.3333 29.3333H10.6666C9.95937 29.3333 9.28109 29.0524 8.78099 28.5523C8.2809 28.0522 7.99995 27.3739 7.99995 26.6667C7.99995 25.9594 8.2809 25.2811 8.78099 24.781C9.28109 24.281 9.95937 24 10.6666 24H21.3333C22.0405 24 22.7188 24.281 23.2189 24.781C23.719 25.2811 23.9999 25.9594 23.9999 26.6667ZM23.9999 18.6667C23.9999 19.3739 23.719 20.0522 23.2189 20.5523C22.7188 21.0524 22.0405 21.3333 21.3333 21.3333H10.6666C9.95937 21.3333 9.28109 21.0524 8.78099 20.5523C8.2809 20.0522 7.99995 19.3739 7.99995 18.6667C7.99995 17.9594 8.2809 17.2811 8.78099 16.781C9.28109 16.281 9.95937 16 10.6666 16H21.3333C22.0405 16 22.7188 16.281 23.2189 16.781C23.719 17.2811 23.9999 17.9594 23.9999 18.6667ZM10.6666 13.3333C10.056 13.3218 9.46779 13.1011 9.00038 12.708C8.53298 12.3149 8.21467 11.7732 8.09868 11.1736C7.98269 10.574 8.07604 9.95269 8.36313 9.41363C8.65022 8.87457 9.11365 8.45039 9.67595 8.212L13.8279 6.55067C14.0756 6.45174 14.2878 6.28083 14.4373 6.06002C14.5869 5.83922 14.6667 5.57866 14.6666 5.312V2.66667H17.3333V5.312C17.3332 5.57866 17.413 5.83922 17.5625 6.06002C17.712 6.28083 17.9243 6.45174 18.1719 6.55067L22.3226 8.21067C22.8856 8.44852 23.3498 8.87255 23.6375 9.41177C23.9252 9.95099 24.019 10.5727 23.9031 11.1728C23.7872 11.7729 23.4687 12.3149 23.0009 12.7082C22.5331 13.1016 21.9444 13.3222 21.3333 13.3333H10.6666Z" fill="#5C5C5C"/>
</g>
<defs>
<clipPath id="clip0_50_2440">
<rect width="32" height="32" fill="white"/>
</clipPath>
</defs>
</svg>
