<svg width="24" height="24" viewBox="0 0 24 24" fill="none" xmlns="http://www.w3.org/2000/svg">
<path fill-rule="evenodd" clip-rule="evenodd" d="M16.4142 4.00009C15.6332 3.21905 14.3668 3.21904 13.5858 4.00009L5.58579 12.0001C5.21071 12.3752 5 12.8839 5 13.4143V15.0001C5 16.1047 5.89543 17.0001 7 17.0001H8.58579C9.11622 17.0001 9.62493 16.7894 10 16.4143L18 8.41431C18.7811 7.63326 18.781 6.36693 18 5.58588L16.4142 4.00009ZM7 13.4143L15 5.41431L16.5858 7.00009L8.58579 15.0001H7L7 13.4143ZM4 19.0001C3.44772 19.0001 3 19.4478 3 20.0001C3 20.5524 3.44772 21.0001 4 21.0001H20C20.5523 21.0001 21 20.5524 21 20.0001C21 19.4478 20.5523 19.0001 20 19.0001H4Z" fill="black"/>
</svg>
